<?xml version="1.0" encoding="utf-8"?>
<!-- Generator: Adobe Illustrator 25.0.1, SVG Export Plug-In . SVG Version: 6.00 Build 0)  -->
<svg version="1.0" id="Layer_1" xmlns="http://www.w3.org/2000/svg" xmlns:xlink="http://www.w3.org/1999/xlink" x="0px" y="0px"
	 viewBox="0 0 1234 824" style="enable-background:new 0 0 1234 824;" xml:space="preserve">
<style type="text/css">
	.st0{fill:#FFFFFF;}
	.st1{fill:#124392;}
	.st2{fill:#EF7124;}
	.st3{fill:none;}
</style>
<path class="st0" d="M579.8,44.8c-39.1,3.7-77.3,13.9-113.1,30c-16.1,7.1-31.7,15.5-46.5,24.9c-14.1,8.7-27.5,18.5-40,29.3
	c-11.3,8.9-21.5,19.2-31.6,29.6c-9.1,9.5-17.6,19.5-25.5,29.9c-6.9,9.2-13.6,18.7-19.7,28.5c-5.5,8.6-10.4,17.5-15.1,26.5
	c-0.8,1.3-1.4,2.7-1.8,4.1c-0.7,0.8-1.3,1.7-1.7,2.7c-3.8,8-7.6,15.9-10.6,24.1c-2,4.2-3.4,8.6-5.1,13c-1.5,4.6-3.6,9.2-4.4,14
	l-0.3,0c-2.4,8.4-5,16.8-6.9,25.3c-1.9,8.2-3.9,16.5-4.8,24.9h-0.3c-1,7.9-2.3,15.8-2.9,23.8c-1,7.9-1.6,15.9-1.7,23.9h-0.2
	c0.1,7.7-0.2,15.4,0.1,23c0.1,7.7,0.6,15.5,1.4,23.2c0.8,7.7,1.6,15.4,2.8,23.1c1.1,7.7,2.7,15.5,4.3,23.2c1.8,7.5,3.7,15,5.8,22.5
	c0.4,0.9,0,2.4,0.9,3c2.3,7.7,4.9,15.4,7.6,23c3.3,8.5,6.8,17.1,10.6,25.4c4,8.8,8.3,17.4,13.1,25.8c4.8,8.9,10.2,17.4,15.7,25.8
	l0.8,0.4l1-0.3l-1.1,0.5c6,9.7,13.1,18.7,20.3,27.5c8.1,9.9,16.8,19.4,25.8,28.5s18.5,17.5,28.4,25.5c11.9,9.5,24.3,18.3,37.3,26.4
	c13.7,8.6,27.9,16.2,42.6,22.7l-0.4,0.7c1.5-0.6,2.1,1,3.6,0.9c14.9,6.2,30,12.2,45.6,16.5c17.2,5.1,34.8,8.8,52.6,11.2v0.1
	c18.7,2.5,37.5,3.6,56.3,3.3c18.7-0.4,37.5-1.7,55.8-5.2c14.7-2,29.2-5.8,43.4-9.8c2.9-0.4,5.4-2.1,8.3-2.5
	c15.8-5.1,31.2-11.3,46.1-18.5c14-6.7,27.5-14.2,40.6-22.6c11.8-7.6,23.1-15.8,33.9-24.7c9.9-8.2,19.4-16.8,28.5-26
	c8.6-8.5,16.7-17.5,24.3-26.9c6.4-7.8,12.4-16.1,18.3-24.3c5.3-7.8,10.3-15.8,15.1-23.9c4.6-8,8.9-16.3,13-24.5
	c3.5-7.4,6.9-14.8,9.9-22.4l0,0c2.1-5.5,4.2-10.9,6.1-16.5c0.7-2,1.6-4,1.5-6.1c-1-0.3-2.1-0.6-3-1c1.3,0.4,2.5,0.8,3.8,1.1
	c1.9-7.1,4.3-14.2,6.2-21.4c1.8-7.2,3.6-14.7,5-22.1c1.5-6.3,2.2-12.7,3.4-19c1-7.7,1.8-15.5,2.4-23.3c0.7-7.1,1.1-14.2,1.1-21.4
	s0.1-14.4-0.2-21.6c0.1-6.8-0.7-13.5-1.2-20.2c-0.6-8.4-2.1-16.8-2.9-25.2h-0.3c-0.8-7.1-2.4-14-3.8-21c-2.3-9.6-4.5-19.1-7.5-28.5
	c-2.5-8.4-5.4-16.6-8.6-24.8c-0.5-0.9-0.1-2.5-1.2-3c-3.5-8.8-7.5-17.7-11.7-26.3c-5-10.4-10.5-20.5-16.7-30.2
	c-6.4-10.4-13.1-20.7-20.7-30.2c-8-11.3-17.5-21.6-26.8-31.9c-10.8-11.2-22.3-21.7-34.3-31.6c-12.3-10.1-25.3-19.4-38.9-27.6
	c0.1-0.2,0.3-0.5,0.4-0.6c-1.8-0.5-3.6-0.9-5-2.2c-14.7-8.8-30-16.5-45.7-23.2l-2.2-0.5l0.1-0.4c-18.3-7.6-37.2-13.6-56.5-18.2
	C662.4,43.4,620.9,40.7,579.8,44.8"/>
<path class="st0" d="M354.6,308.6c27-4.6,53.9-9.5,80.9-14.1c4.6-0.7,10-0.6,13.5,2.9s3.1,8.9,2.1,13.3c-6.6,26.3-13.4,52.6-20,79
	c11.8-10.7,25.4-19.5,40.7-24.4c14.3-4.6,29.4-6.1,44.4-4.6c13.3,1.6,26.7,7.4,35.1,18.3c-7.7,1.6-15.2,5.3-19.7,11.9
	c-5.3,7-6.1,16.3-4.4,24.6c0.6,1.3,1,2.7,1.3,4.1c-9.2,3.3-17.9,9.1-22.8,17.7c-4.8,8.6-5.5,18.9-2,28.1
	c2.9,7.5,10.1,12.7,17.8,14.5c4.2,1.3,8.6,0.9,13,0.9l-3.5,0.1c-18.8,18.3-41.6,32-66.5,40.1c-19,6.3-39,9.4-58.9,10.5
	c-15.4,0.5-31.5-0.3-45.6-7.1c-9.9-4.8-17.7-14-19.9-24.9c-3.3-14.2,0.4-28.7,4.1-42.5c9.6-37.3,19.2-74.6,28.9-111.9
	c2.2-8.4,2.3-18-2.5-25.5c-3.3-5.4-9-8.8-15-10.6L354.6,308.6"/>
<path class="st0" d="M460.6,404.3c-14.3,2.4-27.4,10.1-37.6,20.3c-0.6,0.5-1,1.3-1.1,2.1c-3.2,13-6.5,26-9.7,39.1
	c-1.3,6-2.2,12.5,0.3,18.3c1.8,4.2,6,6.8,10.4,7.4c6.4,0.8,12.9,0,19-2.1c11.1-3.8,20.6-11.2,28.1-20.2
	c10.8-12.9,17.4-29.5,17.4-46.4c0.1-5.8-2-12-6.9-15.5C474.8,403.4,467.3,403.2,460.6,404.3"/>
<path class="st0" d="M790.5,310.2c14.7-5.9,30.8-9.5,46.6-6.8c9.4,1.5,18.7,6.4,23.7,14.8c6.5,10.7,6.4,24,4.4,36
	c-3.8,19.5-7.8,39-11.6,58.5c-1.4,7.7-1.1,16.3,3.6,22.9c4.2,5.8,11.2,8.7,18,9.6l-1.5,0.4c-32.3,5.6-64.7,11.3-97,17.1
	c6-28.8,12-57.5,18-86.2c1.3-5.8,2.4-12.2,0.1-17.9c-1.9-4.6-6.9-7.3-11.8-7.4c-8-0.3-15.8,3-22.2,7.5
	c-10.7,7.6-17.2,19.9-20.1,32.5c-5.8,26.8-11.5,53.8-17.4,80.7c-16.6,3-33.2,5.9-49.9,8.9c-3.7,0.5-7.8,0.6-10.9-1.8
	c-2.6-1.9-3.7-5.3-4-8.4c-0.4-5.8,1.5-11.5,2.5-17.1c4.2-19.6,8.4-39.2,12.6-58.8c1.1-5.4,1.6-11.4-1.2-16.3
	c-2.4-4.1-7.3-6.1-11.9-6c-7.8,0-15.2,3.2-21.5,7.6c-10.4,7.5-16.9,19.4-19.9,31.7c-6.1,27.3-12,54.6-18.2,81.8
	c-14.7,2.4-29.4,5.2-44.1,7.6c-3.8,0.7-7.8,1.7-11.7,1.2c-3.4-0.2-6.5-2.3-7.7-5.5c-1.9-5-0.1-10.2,0.9-15.2l0.4-1.3
	c9.2-1.6,17.5-6.3,24.8-12c2.4,1.6,4,5.1,7.2,4.7c8.6-0.9,17-3.3,25.6-3.9l0.4-1.6c-3.5-2-6.7-4.3-9.7-6.9c-3.1-2.7-6.5-5.1-9-8.3
	c0.2-0.9,0.7-1.8,1.3-2.5c3.9-5.9,7.6-12.1,9.5-19c0.7-2.8,1.3-6.1-0.6-8.6c-1.3-1.6-3.6-1.5-5.5-1.5c-4.5,0.4-8.8,1.9-12.6,4.3
	c2.9,4,1.4,9.3-0.2,13.5c-0.5,1-0.7,3.4-2.4,2.5c-5.3-6.2-10-12.8-14.1-19.7c-3.5-6.1-6.2-13.4-4.3-20.4c2.1-6.5,10.6-9.5,16.5-6.1
	c2.7,1.6,4.1,4.6,4.7,7.5c3.5-2.6,5.9-6.9,5-11.2c-1.1-5.8-6.2-9.9-11.7-11.5c2.3-10,4.4-20.1,6.8-30.1c12.8-2.3,25.7-4.5,38.6-6.8
	c4.7-0.8,9.6-1.8,14.3-0.6c3.3,0.6,6.1,2.8,7.5,5.8c1.7,3.8,1.1,8,0.4,11.9c7.4-6.7,15.4-12.6,24-17.7c13.7-8.1,28.4-15.1,44.3-17.6
	c9.6-1.4,19.9-1.5,28.7,3c6,3,10.4,8.5,12.1,15C755,328.7,772,317.8,790.5,310.2"/>
<path class="st0" d="M525.5,449.5c-1.1-6.7,2.4-14.4,9-16.8c5.4,9.2,11.9,17.8,19.2,25.5c-4.2,3-9.7,3.8-14.8,3.5
	C532.5,461.3,526.2,456.1,525.5,449.5L525.5,449.5z"/>
<path class="st1" d="M579.8,44.8c20.7-2.2,41.5-2.5,62.2-1c-0.2,5.3,0.1,10.6-0.6,15.8c-0.1,8.4-0.2,16.9-0.4,25.4
	c-0.9,11.1-0.6,22.2-0.8,33.3c-1.1,12.4-0.3,25-1.3,37.4c-0.1,7.7-0.3,15.3-0.3,23c-0.9,9.2-0.4,18.6-0.8,27.9c0.2,4-0.7,8-0.6,12
	c0,7.1-0.2,14.2-0.2,21.4c-1.1,11.6-0.1,23.4-1.2,35c-0.1,8.2-0.3,16.4-0.3,24.6c-0.5,5-0.6,10.1-0.5,15.1c1,2.2,3.6,3.4,4.9,5.5
	c4.6-2,8.5-5.6,12.9-8c2-1,2.4-3.4,2.6-5.4c1.8-10.4,3.9-20.7,5.8-31c0.6-3.9,2-7.8,1.5-11.8c0.2,0.7,0.5,1.5,0.7,2.2
	c0-2.5,0.3-4.9,0.9-7.3c12-64.3,24.1-128.7,36.2-193c0.8-4.3,2.1-8.6,2.2-13c19.3,4.5,38.2,10.6,56.5,18.2l-0.1,0.4
	c-0.3,1.8-0.9,3.6-1.6,5.3C732.3,147.9,707.2,219,682,290.1c-1.1,3.4-2.8,6.6-3,10.2c8.1-2.5,16.5-4.2,25-5
	c6.2-11.4,12.1-22.9,18.2-34.3c2.2-5,5.3-9.4,7.2-14.5c0,0.8,0,1.5,0,2.3c1-4.4,3.6-8.2,5.6-12.2c21.5-40.6,42.9-81.2,64.3-121.8
	c3.2-5.8,6-11.9,9.5-17.5l2.8,1c13.6,8.3,26.6,17.5,38.9,27.6c-5.7,8.6-12,16.8-17.9,25.3C798.3,199,764.1,247,729.8,294.9
	c-0.8,0.9-1.2,2.1-1.4,3.3c5.1,0.9,9.8,3.5,13.9,6.5c1.7,1.1,3.3-0.5,4.6-1.4c3-2.3,6.2-4.3,9.3-6.5c5.4-6,10.9-11.9,16.3-17.8
	c1.6-1.9,3.6-3.5,4.5-5.8l0.5,0.7c8.6-10,17.8-19.6,26.7-29.4c11.5-12.9,23.5-25.3,35-38.2c11.3-12.3,22.6-24.5,33.8-36.8
	c3.8-4,7.2-8.6,11.5-12c9.3,10.2,18.8,20.5,26.8,31.9c-2.1,0.2-3.1,2.2-4.6,3.4c-8.3,6.8-16.1,14.3-24.3,21.2
	c-22.7,19.7-45.2,39.6-68,59.2c-0.7,0.7-1.4,1.5-2,2.3c1.8-0.4,3.7-0.7,5.6-0.7c9-0.3,18.1-0.6,26.9,1.3c2,0.4,4,1.1,6.1,1
	c2-0.9,3.4-2.9,5.6-3.5l-1-0.3c1-0.3,1.9-0.7,2.7-1.4c18.7-13.1,37.3-26.4,56-39.6c5.9-4.3,12-8.3,17.8-12.8
	c6.1,9.8,11.7,19.9,16.7,30.2l-2,0.4c-23.6,13.6-47.2,27.2-70.7,40.9c5,5.7,10,11.6,13.1,18.6c0.4,1.4,1.8,0.4,2.6,0.1
	c17.2-8.3,34.6-16.3,51.8-24.5c2.3-0.7,4.3-2.3,6.7-2.9l-1.1-0.5c3.5-0.3,6.3-3,9.8-3.5l-1.1-0.5c1.5,0.4,2-0.6,2.4-1.9
	c1.1,0.5,0.6,2,1.2,3c3.2,8.1,6.1,16.4,8.6,24.8c-24.9,9.3-49.7,18.9-74.7,28.2c-0.5,1-0.8,2.2-0.7,3.4c0,6,0.2,12.1-1.1,18.1
	c4-0.5,7.7-2.2,11.6-3.1c23.3-7.2,46.9-13.9,70.2-21.2l1.4,0.6c0.4,0.8,0.7,1.6,0.8,2.4c1.4,7,3,13.9,3.8,21
	c-30.2,6.4-60.3,13.7-90.6,20.2c-1.3,3.1-1.2,6.7-1.8,10c-0.3,2.7-1.3,5.4-0.8,8.1c3-1.2,6.3-0.7,9.4-1.7c18.2-2.7,36.3-6,54.6-8.6
	c1.5-0.2,3.1-0.3,4.7-0.1c-1-0.2-2-0.5-3-0.7c5.9,0.3,11.6-1.8,17.5-2.3c4.4-0.4,8.7-1.6,13.1-2c0.1,0.5,0.2,1.7,0.3,2.2
	c0.5,6.7,1.3,13.5,1.2,20.2c-24,1.9-48,4.6-71.9,6.7c-9.6,1.2-19.2,1.6-28.8,3c-0.2,5.1-1.8,10-1.9,15.2c6.8,0,13.6-0.2,20.4-0.3
	c9.2-1,18.6-0.1,27.8-1.3c6.6-0.1,13.3-0.3,19.9-0.3c5-0.7,10-0.4,15-0.6c6.5,0,13.1-0.9,19.6-0.7c0,7.1-0.4,14.3-1.1,21.4
	c-5.1-0.1-10.3,0.1-15.3-0.5c-12.2-0.5-24.4,0.1-36.5-0.9c-17.4-0.1-34.8-1.2-52.2-1.1c-0.9,4.8-1.5,9.7-1.7,14.6
	c3.6,1.1,7.4,0.4,11,1.1c27,2.3,54,4.8,81.1,7c3.6,0.6,7.2,0.8,10.8,0.5c0.2,0.9,0.3,1.7,0.5,2.6c-1.2,6.3-2,12.7-3.4,19
	c-30.8-4.2-61.6-9.1-92.5-13.5c-3.3-0.5-6.6-1.4-10-1c-0.7,1.4-1.1,2.9-2.4,4c-9.2,2.3-18.7,2.7-27.8,5.2c5.8,0.7,11.5,2.2,17.3,3.4
	c2.6,0.5,5.1,1.5,7.8,1.2c-0.4,0.2-0.8,0.4-1.2,0.7c3.8-0.2,7.3,1.3,11,1.8c5.5,1,10.8,3,16.5,3.1l-1.3,0.7
	c4.8,0.2,9.5,1.8,14.2,2.7c10.3,2,20.4,4.8,30.8,6.2c-0.4,0.2-0.8,0.4-1.2,0.7c3.5-0.3,6.7,1,10.1,1.6c6.9,1.2,13.8,3.1,20.7,4.3
	c1.1,0.1,2.1,0.5,2.9,1.3c-1.8,7.2-4.2,14.2-6.2,21.4c-1.3-0.3-2.6-0.7-3.8-1.1c-48.3-13.8-96.7-27.3-145.1-41
	c-6.4-2.5-13.1,0.6-19.6,1.3c-3.4,1-6.9,0.9-10.2,2.2c31.5,11.2,63,22.4,94.5,33.7c2,1,4.4,0.9,6.3,2c-0.9,0-1.8-0.1-2.7-0.2
	c0,0.1,0,0.3,0,0.5c3.7-0.3,6.9,1.5,10.3,2.7c10.4,3.6,20.7,7.5,31.1,11.1c4,1.8,8.3,2.5,12.2,4.4c6.1,2.5,12.7,3.9,18.6,6.9
	c-3,7.6-6.4,15-9.9,22.4c-1.5-0.2-2.9-0.4-4.3-0.8c0.3-0.3,0.5-0.6,0.8-0.9c-1.9,0-3.5-1.1-5.2-1.7c-14.2-6.1-28.2-12.6-42.4-18.6
	c-2-0.9-4-1.9-5.9-3.1l1.4,1.4c-7-3.8-14.6-6.6-21.8-10c-13.5-6.1-27.2-11.8-40.7-18c-1.2-0.7-2.6-1.1-4-1c0.4-0.2,0.8-0.4,1.2-0.6
	c-2.1-0.3-4-1.4-6-2.2c-17.5-7.8-35-15.4-52.4-23.2c-1.3-0.7-2.8-1.3-4.2-0.8c-5.3,1.1-10.8,1.6-15.9,3.3
	c31.5,17,63.2,33.8,94.7,50.9c3.4,1.4,6.3,4.2,10.1,4.5l-1.3,0.3c17.5,9.1,34.7,18.6,52.1,27.9c1,0.4,2,0.7,3,1
	c-0.3,0.3-0.6,0.6-0.9,0.8c2-0.1,3.6,1.3,5.3,2.1c7.8,4.2,15.5,8.4,23.3,12.5l0.2,0.7c-4.8,8.1-9.8,16.1-15.1,23.9
	c-2-0.5-3.6-2-5.3-3c-9-6.1-18.2-11.8-27.3-17.8c-4-2.3-7.5-5.5-11.8-7.1c0.1-0.3,0.3-0.5,0.5-0.8c-3.3-1.1-5.9-3.5-8.9-5.3
	c-26.2-16.9-52.3-34-78.5-51c-5.3-3.9-11.1-6.9-16.4-10.7c-9-5.8-18-11.4-26.7-17.6c0.5,0.5,0.9,1,1.4,1.5c-1.1-0.8-2.2-1.3-3.3-2
	l0.8-0.3c-4.4-2-8.3-5.1-12.4-7.7c-4.8,1-9.8,1.3-14.4,2.8c3.8,3.1,7.8,6,11.6,9.2c2.2,1.7,4.2,3.8,6.9,4.7l-0.5,0.8
	c3.6,1.8,6.5,4.8,9.6,7.2c11.3,8.6,22.2,17.6,33.4,26.2c1.9,1.4,3.5,3.6,6,4c-1.2,0.3,0,1.1,0.5,1.4c1.5,1,3.1,2,4.6,3l-1,0.5
	c3.4,0.1,5,4.3,8.3,5.1c-0.3,0.1-0.6,0.3-0.8,0.4c2.1,0.6,3.5,2.3,5.2,3.6c9.6,7.3,18.8,15.1,28.5,22.4c2.8,2,5.1,4.8,8.3,6
	l-0.7,0.5c6.5,4.1,12.2,9.5,18.4,14c13.6,11,27.4,21.6,41.1,32.5c1.5,1.1,2.9,3.2,5,2c-7.6,9.4-15.7,18.4-24.3,26.9
	c-37.9-36.3-75.4-73.2-113.3-109.5c-11.2-11.3-22.9-22.1-34.3-33.2c-3-3.1-6.7-5.6-9-9.2c-6.1-4.6-11-10.8-16.8-15.7
	c-4.3-0.3-8.3,1.6-12.5,1.8l0.4,1.4c4,4.5,7.7,9.4,11.6,13.9c1.6,2.4,4,4.2,5.2,6.9c0.2-0.2,0.4-0.4,0.6-0.6
	c0.7,1.3,1.5,2.5,2.4,3.7c12.9,15.2,25.4,30.8,38.2,46.1c4.5,4.8,8.2,10.4,12.7,15.2c24.1,29.4,48.4,58.6,72.6,87.9
	c4.6,5.7,9.5,11.2,13.9,17.1c-10.8,8.9-22.2,17.1-33.9,24.7c-14.5-22.2-28.6-44.7-42.9-67c-2.8-4-5.2-8.2-7.8-12.3
	c-12.2-18.9-24.3-37.9-36.3-56.9c-1.1-1.7-2.5-3.3-2.9-5.3c-0.3,0.2-0.6,0.4-0.8,0.7c-0.7-2.9-2.8-5-4.1-7.6
	c-10.2-16-20.5-32-30.6-48.1c-3.9-5.8-7.2-12-11.5-17.5c-3.7,1-7.6,1.7-11.4,2c-0.3,0.5-0.3,1.2,0.1,1.7
	c29.5,63.8,59,127.6,88.5,191.4c0.9,1.8,2.1,3.5,1.8,5.6c0.2-0.4,0.3-0.8,0.5-1.2c2.7,7,6.1,13.7,9.2,20.5c2.5,5.6,5,11.2,7.7,16.7
	c-14.9,7.2-30.3,13.4-46.1,18.5c-1.4-1-1.4-2.9-1.9-4.3C704,677.2,679.9,595,655.5,513c-4.1,0.4-8,1.2-12.1,1.8c0,1.3-0.1,2.7,0,4
	c11.5,83.9,22.8,167.7,34.1,251.6c0.1,1.8,0.4,3.6,0.9,5.4c-18.3,3.5-37.1,4.8-55.8,5.2c0.4-9.1-0.1-18.3,0.8-27.4
	c0.4-10.1-0.1-20.2,0.8-30.3c0-8.2,0.3-16.4,0.3-24.7c1.2-12.7,0.1-25.5,1.3-38.1c0.1-10.9,0.3-21.8,0.8-32.6
	c0.4-8.2-0.1-16.5,0.8-24.6c0-8.5,0.3-17,0.3-25.5c0.9-10.3,0.7-20.7,0.8-31c0.9-9.7,0.4-19.5,0.8-29.2c-4.7,0.1-9.2,1.3-13.8,2
	c-1.3,4.8-2.1,9.8-3,14.7c-4.6,23.9-9,47.8-13.6,71.7c-0.7,5.2-2.5,10.4-2.4,15.7l-0.6-2.2c0.1,3.5-0.9,6.8-1.4,10.2
	c-7.6,39.4-14.9,78.8-22.5,118.2c-1.9,9.9-3.5,20-5.7,29.8c-17.8-2.4-35.4-6.2-52.6-11.2c28.5-81.4,57.4-162.6,86.1-244
	c-3.6,0.2-7.2,0.6-10.8,1.4c-2.2,0.6-4.6,0.2-6.5,1.5c-12.4,24.3-25.4,48.3-38,72.5c-23,43.8-46.1,87.5-69.2,131.2
	c-3.2,6.6-6.8,13-10.3,19.5c-14.7-6.6-29-14.2-42.7-22.8c10.1-14.1,20.2-28.3,30.2-42.4c1.3-2.9,3.8-5,5.5-7.7
	c3.1-4.6,6.4-9,9.6-13.5c0.1-0.3,0.2-1,0.3-1.3c0.1,0.3,0.2,0.8,0.3,1.1c1.9-4.3,5.8-7.5,7.5-11.8l0.7,0.5c0.8-2.2,2.5-4,3.4-6.2
	l0.9,0.5c0.2-1.2,0.7-2.4,1.5-3.4c3.7-4.6,6.8-9.6,10.3-14.3c9.6-13.3,19-26.7,28.6-40c2-3.3,4.7-6.2,6.5-9.6
	c0.1,0.2,0.3,0.7,0.5,0.9c0-0.3,0.1-1,0.2-1.3c9.8-13.7,19.6-27.5,29.4-41.1c0.5-0.5,1.1-1,1.7-1.4l-1.2-0.2
	c2.2-1.8,3.6-4.2,5.2-6.4c-5.3,0-10.3,2-15.6,1.7c-1.9,0.1-3.9-0.5-5.7,0.2c-38.3,42-76.7,83.9-115.3,125.6
	c-5.1,6-11.2,11.4-15.8,17.8c-0.5,0.2-1.1,0.3-1.6,0.6c-2.1,3.6-5.6,6.2-8.2,9.5c-4.9,5.3-9.8,10.6-14.7,15.9l-1.5-0.1
	c-9.9-8-19.4-16.5-28.4-25.5c-0.1-0.3-0.4-1-0.6-1.3c49.7-43.4,99.4-86.7,149.1-130c7.1-5.8,13.8-12.3,21-18
	c-0.8-1.2-2.1-2.6-3.7-1.6c-6,4.8-12.9,8.4-19.8,11.8c-11.2,5.3-22.7,10-34.5,13.9c-4.3,2.1-8,5.3-11.8,8.2
	c-4.6,2.6-8.7,6.1-13.1,9.1c-20.7,14.5-41.2,29.4-62,43.9c-16.9,11.8-33.5,24-50.5,35.7c-7.2-8.8-14.3-17.8-20.3-27.5l1.1-0.5
	c7-3.6,13.6-8.1,20.6-11.7c21.9-12.8,43.8-25.4,65.7-38.1c1.5-1.1,3.1-1.9,4.9-2.5c2.4-2.2,5.4-3.3,8.1-5c-3.2-0.7-6.4,0.2-9.6,0
	c-10.5,0.3-21-0.5-31.3-2.4c-1.8-0.1-3.6-0.4-5.2,0.5c-23.5,11.2-47.2,22.2-70.7,33.4c-4.8-8.4-9.1-17-13.1-25.8
	c10.2-4.3,20.7-7.8,30.9-12c8.3-2.9,16.5-6.3,24.8-9.3c0-0.2,0-0.7,0-0.9c-6.6-4.9-12.4-10.9-16.9-17.8c-13,4-26.1,7.8-39.1,11.8
	c-3.4,0.8-6.6,2.3-10.1,2.8c-2.7-7.6-5.4-15.3-7.6-23l0.4-1.6c15.5-3.2,30.9-7.1,46.5-10.3c0.9-0.2,1.7-0.5,2.4-1
	c-2-6.8-0.5-13.9-1.6-20.7c-15.3,2.2-30.5,4.9-45.8,7.2c-2.8,0.6-5.7,1-8.5,1c-1.6-7.7-3.1-15.4-4.3-23.2
	c11.9-1.1,23.9-2.4,35.8-3.4c8.8-1.3,17.9-1.3,26.6-3c1.5-6.4,3.2-12.7,4.9-19.1c-4,0-8,0.1-12,0.1c-8,0.9-16.2,0.5-24.2,0.8
	c-9.5,1.2-19.2,0.1-28.7,1.3c-1.7,0.1-3.4,0-5.1,0.1c-0.8-7.7-1.2-15.4-1.4-23.2c10.4,0.4,20.8,0,31.2,0.9c9,0.2,18.1-0.1,27.1,0.8
	c6,0.1,11.9,0.2,17.8,0.2c1.9-5.7,2.9-11.7,4.9-17.4l-1.2-0.9c-23.1-2-46.2-4-69.3-5.9c-3.4-0.5-6.9-0.8-10.4-0.7
	c0.1-8,0.7-16,1.7-23.9c21.7,3.3,43.4,6.6,65.2,9.7c6.3,0.7,12.5,2.4,18.9,2.5c1.1-6.1,3.4-12,4.1-18.2c-1.2-0.2-2.5-0.3-3.8-0.3
	l1.2-0.5c-2.9,0.2-5.7-1-8.5-1.3c-6.3-1.7-12.8-2.4-19.1-4.1c-15.9-3.5-31.8-6.7-47.7-10.3c-2.4-0.4-4.7-1.2-7.1-1.2
	c0.8-8.4,2.9-16.6,4.8-24.9c25.7,7,51.4,14.4,77,21.7c2.9,0.5,5.6,2,8.6,1.9c1.4-6.1,3.2-12.1,4.6-18.2c0-0.4-0.1-1.3-0.1-1.7
	c-4.2-0.9-8.2-2.8-12.3-4.1c-8.9-2.9-17.5-6.5-26.4-9.3c-13.6-5.2-27.6-9.5-41.1-14.9c-1-0.3-2-0.6-3-0.6c0.8-4.8,2.9-9.4,4.4-14
	c1.6-4.4,3.1-8.8,5.1-13c4.4,2.4,9.1,3.9,13.6,6.1c20.5,9.2,41.1,18.1,61.6,27.2c1.8,1.1,3.8,1.1,5.8,1.1c6,1.8,11.7,5.2,15,10.6
	c4.8,7.5,4.7,17.1,2.5,25.5c-9.7,37.3-19.4,74.5-29.1,111.8c-3.7,13.7-7.4,28.2-4.1,42.5c2.3,10.9,10,20.1,19.9,24.9
	c14.1,6.9,30.2,7.7,45.6,7.1c20-1.1,39.9-4.2,58.9-10.5c25-8.1,47.7-21.8,66.5-40.1l3.5-0.1l4.1-0.1l-0.1,1c-1,5-2.8,10.2-0.9,15.2
	c1.3,3.2,4.3,5.4,7.7,5.5c4,0.5,7.9-0.5,11.7-1.2c14.7-2.5,29.4-5.2,44.1-7.6c6.2-27.2,12.1-54.6,18.2-81.8
	c3-12.3,9.5-24.2,19.9-31.7c6.3-4.4,13.8-7.6,21.5-7.6c4.6,0,9.5,1.9,11.9,6c2.8,4.9,2.3,11,1.2,16.3c-4.2,19.6-8.4,39.2-12.6,58.8
	c-1.1,5.7-2.9,11.3-2.5,17.1c0.2,3.1,1.3,6.5,4,8.4c3.1,2.4,7.3,2.3,10.9,1.8c16.6-2.9,33.2-5.9,49.9-8.9
	c5.9-26.9,11.6-53.9,17.5-80.8c2.9-12.6,9.5-24.8,20.1-32.5c6.5-4.5,14.2-7.8,22.2-7.5c4.9,0.1,9.8,2.8,11.8,7.4
	c2.4,5.7,1.3,12-0.1,17.9c-6,28.7-12.1,57.5-18,86.2c32.3-5.7,64.7-11.4,97-17.1l1.5-0.4c-6.9-0.9-13.9-3.8-18-9.6
	c-4.7-6.6-5-15.2-3.6-22.9c3.8-19.5,7.9-39,11.6-58.5c1.9-12,2.1-25.2-4.4-36c-5-8.4-14.3-13.3-23.7-14.8c-15.8-2.6-31.9,1-46.6,6.8
	c-18.5,7.5-35.5,18.4-50.1,32.1c-1.7-6.5-6.1-12-12.1-15c-8.8-4.5-19.1-4.4-28.7-3c-15.9,2.5-30.6,9.5-44.3,17.6
	c-8.6,5.1-16.6,11-24,17.7c0.6-3.9,1.3-8.2-0.4-11.9c-1.4-3-4.2-5.2-7.5-5.8c-4.8-1.2-9.6-0.2-14.3,0.6c-12.9,2.3-25.7,4.5-38.6,6.8
	c-2.3,10-4.4,20.1-6.8,30.1c-4-1.1-8.2-0.7-12.2-0.5c-8.4-10.9-21.7-16.7-35.1-18.3c-15-1.6-30.1,0-44.4,4.6
	c-15.2,4.9-28.9,13.7-40.7,24.4c6.6-26.3,13.3-52.6,20-79c1-4.4,1.3-9.8-2.1-13.3s-8.9-3.6-13.5-2.9c-27,4.6-53.9,9.5-80.9,14.1
	l-0.6-0.2c2-7.2,5.4-13.9,10-19.8c-24.6-13.4-49.4-26.5-74-39.8c-1.1-0.6-2.3-0.8-3.5-0.7l0.1-0.4c0.4-1.5,1-2.9,1.8-4.1
	c4.7-9,9.6-17.9,15.1-26.5c-0.1,0.4-0.2,1.2-0.3,1.6c28,17.8,55.6,36.2,83.5,54.1c1.2,0.7,2.3,1.7,3.7,1.8
	c11.1-2.1,22.2-4.1,33.4-5.8c-2-2.5-4.8-4.3-7.2-6.4c-10.6-8.3-21.1-16.8-31.8-24.9c-0.5-0.6-2.8-1.2-1.4-2
	c-3.1-0.6-4.6-3.8-7.6-4.7l0.5-0.5c-1.2-0.6-2.3-1.5-2.9-2.8c-0.1,0.3-0.2,1-0.2,1.3c-0.9-1.3-2-2.4-3.3-3.3
	c-15.6-12.4-31.3-24.5-46.8-37c7.9-10.4,16.4-20.4,25.4-29.9l0.7-0.1c2,2.8,5.1,4.6,7.4,7.2c17.4,17.1,35,33.9,52.5,50.8
	c3.4,3,6.2,6.6,9.8,9.3c15.1,14.9,30.3,29.7,45.6,44.4c3.6,2.4,6.9,5.2,9.8,8.4c4.3,5.9,10.1,10.5,15.1,15.8
	c13,12.1,25.4,25,38.4,37.1c2.3,2.1,4.3,5.4,7.8,5.2c-0.4,0.2-0.8,0.4-1.1,0.6c3.9-0.3,6.5,3.8,10.4,3.3c0.4-3.9,2.6-7.9,1.6-11.8
	c-6.6-7.5-12.7-15.5-19.3-23c-0.5-0.8-0.8-1.6-1.1-2.4c-0.3,0.2-0.6,0.3-0.8,0.5c-0.9-1.1-1.6-2.3-2-3.7l-0.9-0.3
	c-1.5-1.6-2.7-3.4-3.7-5.4l-0.5,0.7c-3.6-5.6-8.3-10.3-12.5-15.5c-2.7-3.2-5.1-6.5-8-9.6c-0.9-1-1.7-2.2-2.2-3.4l-0.4,0.7
	c-0.5-1.1-1-2.3-2.2-2.7c-0.3-1.6-1.6-2.6-2.6-3.7c-8.6-10.5-17.3-20.9-25.9-31.4c-2-2.9-5.2-5-6-8.5c-0.1,0.7-0.1,1.5-0.2,2.2
	c-0.6-3-3.1-4.9-4.9-7.2c-3.5-4.3-7.4-8.3-10.3-13.1c-0.1,0.2-0.3,0.7-0.4,1c-0.2-1.7-1.6-2.8-2.7-4.1
	c-19.7-23.6-39.1-47.5-58.8-71.1l-0.9,0.2c12.5-10.8,25.9-20.6,40-29.3c0.7,1.6,1.5,3.1,2.5,4.6c8.1,12.6,16.2,25.2,24.2,37.9
	c0.6,0.9,1.1,1.9,1.3,2.9c0.1-0.2,0.4-0.6,0.5-0.8c1.9,4.4,4.9,8.1,7.4,12.2c5.2,8.5,10.8,16.9,16.2,25.3c1.2,1.7,1.7,3.8,3.1,5.4
	c-0.5-1.2-0.9-2.4-1.4-3.5c4,8.1,9.4,15.4,14.1,23.1c10.7,16.8,21.5,33.6,32.2,50.5c5,7.2,9.2,15,14.2,22.2c0.8,1.2,1.4,2.4,1.9,3.8
	c0.2-0.3,0.3-0.5,0.5-0.8c2.6,6.6,8.1,11.7,10.4,18.4l0.9-0.7c0.6,2.7,2.7,4.6,3.1,7.4c0-1,0-2,0-3c1.2,5.2,5.6,8.8,7.4,13.8
	c0.1-0.2,0.4-0.7,0.5-1c0.2,2.2,1.9,5.2,4.5,4.4c5.2-0.7,10.5-1.6,15.7-2.7c-21.1-45.9-42.3-91.8-63.6-137.7
	c-16.4-35.5-32.9-70.9-49.1-106.4c17.4-7.8,35.3-14.2,53.6-19.2c2.5,5.7,3.5,11.9,5.5,17.8c19.4,65.3,38.5,130.7,58,196
	c0,2.1,0,4.3,1.1,6.2c-0.4-1.5-0.6-3.1-0.8-4.6c1.2,2.1,1.4,4.5,2.1,6.8c4,12.7,7.4,25.6,11.5,38.2c6.1-1.4,12.3-1.8,18.3-3.4
	c-6.3-44.6-12-89.3-18-133.9c-5.7-42.7-11.4-85.4-17.1-128.1c-0.2-2-0.6-3.9-0.9-5.9 M475.7,331c2.4,1.2,4.5,3,6.9,4.2
	c4,0.3,7.8-1.7,11.9-1.8c3.3-0.9,6.8-0.7,10.2-0.8c-0.6-1.2-1.6-2.1-2.7-2.8c-2.7-2.2-5.5-4.3-8.2-6.4c-1.9-2.1-4.8-3.1-6.3-5.6
	c-0.6-0.1-1.2-0.3-1.7-0.4c-1.3-2.2-3.9-3.2-5.7-5C478.6,318.7,476.1,324.6,475.7,331 M460.6,404.3c6.7-1.1,14.2-0.9,19.9,3.1
	c4.9,3.5,7,9.7,6.9,15.5c-0.1,16.9-6.7,33.5-17.4,46.4c-7.5,8.9-17,16.4-28.1,20.2c-6.1,2.2-12.6,2.9-19,2.1
	c-4.4-0.7-8.6-3.3-10.4-7.4c-2.5-5.8-1.5-12.3-0.3-18.3c3.2-13,6.5-26,9.7-39.1c0.1-0.8,0.5-1.6,1.1-2.1
	C433.3,414.5,446.3,406.7,460.6,404.3L460.6,404.3z"/>
<path class="st2" d="M642,43.8c20.4,1.3,40.7,4.3,60.6,9.1c-0.1,4.4-1.4,8.7-2.2,13c-12,64.3-24.1,128.7-36.2,193
	c-0.6,2.4-0.9,4.8-0.9,7.3c-0.2-0.7-0.5-1.5-0.7-2.2c0.4,4-0.9,7.9-1.5,11.8c-1.9,10.4-4,20.7-5.8,31c-0.3,2-0.6,4.4-2.6,5.4
	c-4.4,2.5-8.3,6-12.9,8c-1.3-2.1-3.9-3.3-4.9-5.5c-0.1-5.1,0.1-10.1,0.5-15.1c0-8.2,0.2-16.4,0.3-24.6c1.1-11.6,0.2-23.4,1.2-35
	c0-7.1,0.2-14.3,0.2-21.4c-0.1-4,0.8-8,0.6-12c0.4-9.3-0.1-18.6,0.8-27.9c0-7.7,0.2-15.3,0.3-23c1-12.4,0.2-25,1.3-37.4
	c0.2-11.1-0.1-22.3,0.8-33.3c0.1-8.5,0.2-16.9,0.4-25.4C642.1,54.3,641.8,49,642,43.8 M520.3,55.6c19.5-5.2,39.4-8.8,59.5-10.8
	c0.3,2,0.8,3.9,0.9,5.9c5.8,42.7,11.5,85.4,17.1,128.1c6.1,44.6,11.7,89.3,18.1,133.9c-6,1.6-12.2,2-18.3,3.4
	c-4.2-12.6-7.5-25.5-11.5-38.2c-0.6-2.3-0.8-4.7-2.1-6.8c0.2,1.6,0.5,3.1,0.8,4.6c-1.2-1.9-1.1-4.1-1.1-6.2
	c-19.4-65.3-38.6-130.7-58-196C523.7,67.5,522.7,61.3,520.3,55.6 M759,71.5l2.2,0.5c15.7,6.7,31,14.5,45.7,23.3
	c1.4,1.3,3.2,1.7,5,2.2c-0.1,0.2-0.3,0.5-0.4,0.6l-2.8-1c-3.5,5.6-6.2,11.7-9.5,17.5c-21.5,40.5-42.9,81.1-64.2,121.8
	c-2,4-4.6,7.8-5.6,12.2c0-0.8,0-1.6,0-2.3c-1.9,5.1-5.1,9.6-7.2,14.5c-6.1,11.4-12,22.9-18.2,34.3c-8.5,0.8-16.8,2.5-25,5
	c0.2-3.6,2-6.8,3-10.2c25.1-71.1,50.2-142.2,75.4-213.3C758.1,75.1,758.7,73.3,759,71.5 M420.1,99.8c14.8-9.5,30.4-17.8,46.5-24.9
	c16.2,35.6,32.7,70.9,49.1,106.4c21.2,45.9,42.4,91.9,63.6,137.8c-5.2,1.1-10.4,2-15.7,2.7c-2.6,0.8-4.3-2.1-4.5-4.4
	c-0.1,0.2-0.4,0.7-0.5,1c-1.7-5-6.1-8.6-7.3-13.8c0,1,0,2,0,3c-0.4-2.7-2.6-4.7-3.1-7.4l-0.9,0.7c-2.3-6.7-7.9-11.8-10.4-18.4
	c-0.2,0.3-0.4,0.5-0.5,0.8c-0.4-1.3-1-2.6-1.9-3.8c-5.1-7.2-9.2-15-14.2-22.2c-10.7-16.9-21.5-33.7-32.2-50.5
	c-4.7-7.7-10.1-15-14.1-23.1c0.5,1.2,1,2.3,1.4,3.5c-1.4-1.6-2-3.6-3.1-5.4c-5.4-8.4-10.9-16.8-16.1-25.3c-2.4-4.1-5.5-7.8-7.4-12.2
	c-0.1,0.2-0.4,0.6-0.5,0.8c-0.2-1.1-0.7-2.1-1.3-2.9c-8-12.7-16.1-25.3-24.2-37.9C421.6,103,420.8,101.5,420.1,99.8 M850.3,126
	c12,9.9,23.4,20.4,34.3,31.6c-4.4,3.5-7.7,8-11.5,12c-11.3,12.3-22.6,24.5-33.8,36.8c-11.5,12.9-23.6,25.2-35,38.2
	c-8.9,9.8-18.1,19.3-26.7,29.4l-0.5-0.7c-0.9,2.3-2.9,3.9-4.5,5.8c-5.4,5.9-10.9,11.8-16.3,17.8c-3,2.2-6.2,4.3-9.3,6.5
	c-1.3,0.9-3,2.5-4.6,1.4c-4.2-3-8.8-5.6-13.9-6.5c0.2-1.2,0.7-2.3,1.4-3.3c34.2-48,68.5-96,102.6-143.9
	C838.5,142.7,844.7,134.5,850.3,126 M348.5,158.6c10.1-10.3,20.3-20.6,31.6-29.6l0.9-0.2c19.7,23.6,39.2,47.4,58.8,71.1
	c1,1.2,2.5,2.4,2.7,4.1c0.1-0.2,0.3-0.7,0.4-1c2.9,4.8,6.8,8.8,10.3,13.1c1.8,2.3,4.3,4.2,4.9,7.2c0.1-0.7,0.1-1.5,0.2-2.2
	c0.9,3.5,4.1,5.6,6,8.5c8.5,10.5,17.3,20.9,25.9,31.4c1,1.2,2.3,2.2,2.6,3.7c1.2,0.4,1.7,1.6,2.2,2.7l0.4-0.7
	c0.5,1.3,1.3,2.4,2.2,3.4c2.8,3,5.3,6.4,8,9.6c4.1,5.2,8.9,9.9,12.4,15.5l0.5-0.7c0.9,2,2.2,3.8,3.7,5.4l0.9,0.3
	c0.4,1.3,1.1,2.6,2,3.7c0.3-0.2,0.5-0.4,0.8-0.5c0.3,0.8,0.6,1.7,1.1,2.4c6.6,7.5,12.6,15.5,19.3,23c1,3.9-1.2,7.9-1.6,11.8
	c-3.8,0.5-6.5-3.6-10.4-3.3c0.4-0.2,0.8-0.4,1.1-0.6c-3.5,0.1-5.5-3.1-7.8-5.2c-13.1-12.1-25.4-25-38.4-37.1
	c-5.1-5.2-10.9-9.8-15.1-15.8c-2.9-3.2-6.2-6.1-9.8-8.4c-15.3-14.7-30.5-29.4-45.6-44.4c-3.6-2.8-6.4-6.3-9.8-9.3
	c-17.5-16.9-35.1-33.7-52.5-50.8c-2.3-2.6-5.3-4.4-7.4-7.2L348.5,158.6 M303.4,217.1c6-9.8,12.7-19.3,19.7-28.5
	c15.5,12.5,31.2,24.6,46.8,37c1.3,0.8,2.4,1.9,3.3,3.3c0-0.3,0.2-1,0.2-1.3c0.6,1.2,1.6,2.2,2.9,2.8l-0.5,0.5c3,0.9,4.5,4,7.6,4.7
	c-1.4,0.9,0.9,1.4,1.4,2c10.7,8.1,21.2,16.6,31.8,24.9c2.4,2.1,5.2,3.8,7.2,6.3c-11.2,1.7-22.3,3.7-33.4,5.8
	c-1.4-0.1-2.5-1.1-3.7-1.8c-27.9-17.9-55.5-36.2-83.5-54.1C303.1,218.2,303.2,217.5,303.4,217.1 M906.8,192.7
	c1.5-1.2,2.5-3.2,4.6-3.4c7.7,9.4,14.3,19.8,20.7,30.2c-5.8,4.5-11.8,8.5-17.8,12.8c-18.7,13.2-37.3,26.4-56,39.6
	c-0.8,0.6-1.7,1.1-2.7,1.4l1,0.3c-2.2,0.5-3.6,2.5-5.6,3.5c-2.1,0.1-4.1-0.6-6.1-1c-8.8-1.9-17.9-1.6-26.9-1.3
	c-1.9,0-3.8,0.3-5.6,0.7c0.7-0.8,1.3-1.6,2-2.3c22.8-19.6,45.3-39.5,68-59.2C890.8,207,898.5,199.5,906.8,192.7 M284.8,250.4
	c0.4-1,0.9-1.9,1.7-2.7l-0.1,0.4c1.2-0.1,2.5,0.1,3.5,0.7c24.6,13.3,49.4,26.4,74,39.8c-4.6,5.9-8,12.6-10,19.8l0.6,0.2l0.7,0.3
	c-2,0-4.1,0-5.9-1.1c-20.4-9.2-41.1-18.1-61.6-27.3c-4.5-2.1-9.2-3.7-13.6-6.1C277.2,266.3,281.1,258.4,284.8,250.4 M876.2,291
	c23.5-13.7,47.1-27.3,70.7-40.9l2-0.4c4.2,8.6,8.2,17.5,11.7,26.3c-0.4,1.2-1,2.2-2.4,1.9l1.1,0.5c-3.5,0.5-6.3,3.2-9.8,3.5l1.1,0.5
	c-2.4,0.5-4.3,2.2-6.7,2.9c-17.3,8.2-34.6,16.2-51.8,24.5c-0.8,0.3-2.2,1.3-2.6-0.1C886.3,302.6,881.2,296.7,876.2,291 M264.4,301.5
	l0.3,0c1,0.1,2,0.3,3,0.6c13.6,5.4,27.5,9.6,41.1,14.9c8.9,2.8,17.5,6.4,26.4,9.3c4.1,1.3,8,3.2,12.3,4.1c0,0.4,0.1,1.3,0.1,1.7
	c-1.4,6.1-3.2,12.1-4.6,18.2c-3,0-5.7-1.4-8.6-1.9c-25.6-7.3-51.3-14.7-77-21.7C259.4,318.2,262,309.9,264.4,301.5 M895.7,332
	c24.9-9.3,49.8-18.9,74.7-28.2c3.1,9.4,5.2,18.9,7.5,28.5c-0.2-0.8-0.5-1.6-0.8-2.4l-1.4-0.6c-23.3,7.3-46.8,14-70.2,21.2
	c-3.9,0.9-7.6,2.6-11.6,3.1c1.2-5.9,1-12.1,1.1-18.1C894.9,334.2,895.1,333,895.7,332 M475.7,331c0.4-6.4,2.9-12.3,4.2-18.5
	c1.8,1.8,4.4,2.7,5.7,5c0.6,0.1,1.1,0.3,1.7,0.4c1.5,2.5,4.5,3.4,6.3,5.6c2.8,2.1,5.5,4.2,8.2,6.4c1.1,0.7,2.1,1.6,2.7,2.8
	c-3.4,0.1-6.9-0.1-10.2,0.8c-4,0-7.8,2.1-11.9,1.8C480.2,334,478.1,332.2,475.7,331 M252.4,351.6h0.4c2.4,0,4.7,0.9,7.1,1.2
	c15.9,3.6,31.8,6.8,47.7,10.3c6.3,1.7,12.8,2.4,19.1,4.1c2.9,0.4,5.6,1.5,8.5,1.3l-1.2,0.5c1.3,0,2.5,0.1,3.8,0.3
	c-0.7,6.2-3,12.1-4.1,18.2c-6.4-0.1-12.6-1.8-18.9-2.5c-21.7-3.1-43.4-6.4-65.1-9.7C250.2,367.4,251.4,359.5,252.4,351.6
	 M981.7,353.2h0.3c0.8,8.4,2.3,16.7,2.9,25.2c-0.1-0.5-0.2-1.7-0.3-2.2c-4.4,0.4-8.7,1.6-13.1,2c-5.9,0.5-11.5,2.6-17.5,2.3
	c1,0.2,2,0.5,3,0.7c-1.6-0.2-3.1-0.1-4.7,0.1c-18.2,2.6-36.4,6-54.6,8.6c-3.1,1-6.4,0.5-9.4,1.7c-0.5-2.8,0.6-5.4,0.8-8.1
	c0.6-3.3,0.5-6.9,1.8-10C921.3,367,951.4,359.6,981.7,353.2 M551.3,378.9c4.1-0.3,8.3-0.7,12.2,0.5c5.5,1.6,10.6,5.7,11.7,11.5
	c0.9,4.4-1.5,8.7-5,11.2c-0.5-3-2-6-4.7-7.5c-5.8-3.4-14.3-0.4-16.5,6.1c-1.9,7.1,0.8,14.3,4.3,20.4c4.1,7,8.8,13.6,14.1,19.7
	c1.7,1,1.9-1.5,2.4-2.5c1.6-4.2,3.1-9.5,0.2-13.5c3.8-2.4,8.1-3.9,12.6-4.3c1.9,0,4.2-0.1,5.5,1.5c1.9,2.4,1.4,5.8,0.6,8.6
	c-2,6.9-5.6,13.1-9.5,19c-0.6,0.7-1,1.6-1.3,2.5c2.6,3.2,6,5.6,9,8.3c3,2.6,6.3,4.9,9.7,6.9l-0.4,1.6c-8.6,0.6-17,3-25.6,3.9
	c-3.3,0.5-4.8-3.1-7.2-4.7c-7.2,5.8-15.5,10.4-24.7,12.1l-0.4,1.3l0.1-1l-4.1,0.1c-4.3,0-8.8,0.5-13-0.9
	c-7.7-1.8-14.9-6.9-17.8-14.5c-3.5-9.2-2.7-19.5,2-28.1c4.9-8.6,13.6-14.4,22.8-17.7c-0.2-1.4-0.7-2.8-1.3-4.1
	c-1.7-8.3-0.9-17.7,4.4-24.6C536.1,384.3,543.6,380.5,551.3,378.9 M525.5,449.5c0.7,6.7,7,11.8,13.5,12.2c5.1,0.3,10.5-0.5,14.8-3.5
	c-7.4-7.7-13.8-16.3-19.2-25.5C527.9,435.1,524.4,442.8,525.5,449.5 M247.7,399.3h0.2c3.5-0.1,7,0.2,10.4,0.7
	c23.1,1.9,46.2,4,69.3,5.9l1.2,0.9c-2.1,5.7-3,11.7-4.9,17.4c-6,0-11.9-0.1-17.8-0.2c-9-0.9-18.1-0.6-27.1-0.8
	c-10.4-0.9-20.8-0.5-31.2-0.9C247.5,414.6,247.8,406.9,247.7,399.3 M914.2,405.3c24-2.1,47.9-4.8,71.9-6.7
	c0.3,7.2,0.2,14.4,0.2,21.6c-6.6-0.2-13.1,0.7-19.6,0.7c-5,0.2-10.1,0-15,0.6c-6.6,0-13.3,0.2-19.9,0.3c-9.2,1.2-18.6,0.2-27.8,1.3
	c-6.8,0.1-13.6,0.3-20.4,0.3c0.2-5.1,1.8-10,1.9-15.2C895.1,406.9,904.7,406.5,914.2,405.3 M881.1,439c17.4-0.1,34.8,1,52.2,1.1
	c12.1,1,24.4,0.5,36.5,0.9c5.1,0.7,10.2,0.4,15.3,0.5c-0.6,7.8-1.4,15.5-2.4,23.3c-0.2-0.9-0.3-1.7-0.5-2.6
	c-3.6,0.2-7.3,0.1-10.8-0.5c-27-2.2-54.1-4.7-81.1-7c-3.6-0.7-7.4,0-11-1.1C879.7,448.7,880.3,443.8,881.1,439 M307.2,443.3
	c4,0,8-0.2,12-0.1c-1.7,6.4-3.4,12.7-4.9,19.1c-8.7,1.7-17.8,1.7-26.6,3c-12,1-23.9,2.3-35.8,3.4c-1.2-7.7-1.9-15.4-2.8-23.1
	c1.7,0,3.4,0,5.1-0.1c9.5-1.2,19.2,0,28.7-1.3C291,443.9,299.1,444.1,307.2,443.3 M876.9,469.3c3.4-0.4,6.7,0.5,10,1
	c30.8,4.4,61.6,9.3,92.5,13.5c-1.4,7.4-3.2,14.8-5,22.1c-0.8-0.8-1.8-1.2-2.9-1.3c-7-1.2-13.8-3.1-20.7-4.3
	c-3.4-0.6-6.6-1.9-10.1-1.6c0.4-0.2,0.8-0.4,1.2-0.7c-10.4-1.5-20.5-4.2-30.8-6.2c-4.8-0.9-9.4-2.5-14.2-2.7l1.3-0.7
	c-5.6-0.1-11-2.1-16.5-3.1c-3.7-0.5-7.2-2-11-1.8c0.4-0.2,0.8-0.5,1.2-0.7c-2.7,0.3-5.2-0.7-7.8-1.2c-5.8-1.2-11.5-2.7-17.3-3.4
	c9.1-2.5,18.7-2.9,27.8-5.2C875.8,472.3,876.3,470.7,876.9,469.3 M264.8,490.7c15.3-2.3,30.5-5,45.8-7.2c1.1,6.8-0.4,14,1.6,20.7
	c-0.7,0.5-1.5,0.9-2.4,1c-15.5,3.2-30.9,7.1-46.5,10.3l-0.4,1.6c-0.9-0.6-0.5-2.1-0.9-3c-2.1-7.5-4-15-5.8-22.5
	C259.1,491.7,261.9,491.4,264.8,490.7 M799.8,486.5c6.5-0.6,13.2-3.7,19.6-1.3c48.3,13.7,96.7,27.3,145.1,41c1,0.4,2,0.7,3,1
	c0.1,2.1-0.8,4.1-1.5,6.1c-1.9,5.5-4,11-6.1,16.5l0,0c-5.9-3-12.5-4.3-18.6-6.9c-3.9-1.9-8.3-2.6-12.2-4.4
	c-10.4-3.6-20.7-7.5-31.1-11.1c-3.4-1.1-6.7-3-10.3-2.7c0-0.1,0-0.3,0-0.5c0.9,0.1,1.8,0.1,2.7,0.2c-1.9-1.1-4.3-1-6.3-2
	c-31.5-11.3-63-22.6-94.5-33.7C792.8,487.4,796.4,487.5,799.8,486.5 M766.4,492.7c1.5-0.5,2.9,0.1,4.2,0.8
	c17.4,7.8,34.9,15.4,52.4,23.2c2,0.8,3.8,1.9,6,2.2c-0.4,0.2-0.8,0.4-1.2,0.6c1.4-0.1,2.8,0.3,4,1c13.5,6.2,27.2,11.9,40.7,18
	c7.3,3.4,14.8,6.1,21.8,10l-1.4-1.4c1.9,1.2,3.8,2.2,5.9,3.1c14.2,6.1,28.2,12.5,42.4,18.6c1.7,0.7,3.3,1.8,5.2,1.7
	c-0.3,0.3-0.6,0.6-0.8,0.9c1.4,0.3,2.9,0.6,4.3,0.8c-4.1,8.3-8.4,16.5-13,24.5l-0.2-0.7c-7.8-4.1-15.5-8.3-23.3-12.5
	c-1.7-0.9-3.3-2.2-5.3-2.1c0.3-0.3,0.6-0.6,0.9-0.8c-1-0.3-2-0.6-3-1c-17.3-9.3-34.6-18.8-52.1-27.9l1.3-0.3
	c-3.8-0.3-6.7-3.1-10.1-4.5C813.6,529.8,782,513,750.5,496C755.6,494.3,761.1,493.9,766.4,492.7 M719.5,501.5
	c4.7-1.5,9.6-1.8,14.4-2.8c4.1,2.5,8,5.7,12.4,7.7l-0.8,0.3c1.1,0.7,2.2,1.3,3.3,2c-0.5-0.5-1-1-1.4-1.5
	c8.7,6.2,17.7,11.9,26.7,17.6c5.3,3.8,11.1,6.8,16.4,10.7c26.2,16.9,52.3,34.1,78.5,51c3,1.7,5.6,4.2,8.9,5.3
	c-0.2,0.2-0.4,0.5-0.5,0.8c4.3,1.6,7.8,4.9,11.8,7.1c9.1,6,18.3,11.7,27.3,17.8c1.8,1,3.3,2.5,5.3,3c-5.9,8.3-11.9,16.5-18.3,24.3
	c-2.1,1.2-3.5-1-5-2c-13.7-10.9-27.5-21.5-41.1-32.5c-6.2-4.5-11.9-9.9-18.4-14l0.7-0.5c-3.3-1.2-5.6-4-8.3-6
	c-9.6-7.3-18.9-15-28.5-22.4c-1.7-1.3-3.1-2.9-5.2-3.6c0.3-0.1,0.5-0.3,0.8-0.4c-3.3-0.8-4.9-5-8.3-5.1l1-0.5c-1.5-1.1-3.1-2-4.6-3
	c-0.4-0.3-1.7-1.1-0.5-1.4c-2.5-0.4-4-2.6-6-4c-11.2-8.7-22.1-17.6-33.4-26.3c-3.2-2.5-6-5.4-9.6-7.2l0.5-0.8
	c-2.7-0.9-4.7-3-6.9-4.7C727.3,507.5,723.3,504.6,719.5,501.5 M693.4,506c4.2-0.2,8.2-2.1,12.5-1.8c5.8,4.9,10.7,11.1,16.8,15.7
	c2.4,3.6,6.1,6.1,9,9.2c11.4,11.1,23,22,34.3,33.2c37.9,36.3,75.4,73.2,113.3,109.5c-9,9.2-18.5,17.8-28.5,26
	c-4.4-5.9-9.3-11.4-13.9-17.1c-24.2-29.3-48.5-58.5-72.6-87.9c-4.5-4.9-8.1-10.4-12.7-15.2c-12.8-15.3-25.3-30.9-38.2-46.1
	c-0.9-1.1-1.7-2.4-2.4-3.7c-0.2,0.2-0.4,0.4-0.6,0.6c-1.1-2.7-3.5-4.5-5.2-6.9c-4-4.6-7.6-9.4-11.6-13.9L693.4,506 M668.5,510.3
	c3.9-0.3,7.7-1,11.4-2c4.3,5.5,7.6,11.7,11.5,17.5c10.1,16.1,20.4,32.1,30.6,48.1c1.3,2.6,3.5,4.7,4.1,7.6c0.2-0.3,0.5-0.5,0.8-0.7
	c0.4,2,1.8,3.7,2.9,5.3c12,19.1,24.1,38,36.3,56.9c2.6,4.1,5,8.4,7.8,12.3c14.4,22.3,28.4,44.9,42.9,67
	c-13.1,8.3-26.6,15.9-40.6,22.6c-2.7-5.5-5.2-11.1-7.7-16.7c-3.1-6.8-6.6-13.5-9.2-20.5c-0.2,0.4-0.4,0.8-0.5,1.2
	c0.3-2.1-1-3.8-1.8-5.6c-29.5-63.8-59-127.5-88.5-191.3C668.2,511.5,668.2,510.9,668.5,510.3 M643.5,514.9c4-0.6,8-1.4,12.1-1.8
	c24.4,82,48.5,164.1,72.9,246.2c0.5,1.5,0.5,3.3,1.9,4.3c-2.9,0.4-5.4,2.1-8.3,2.5c-14.3,4-28.7,7.8-43.4,9.8
	c-0.5-1.8-0.8-3.6-0.9-5.4c-11.4-83.9-22.8-167.8-34.1-251.6C643.4,517.5,643.5,516.2,643.5,514.9 M615.6,519.7
	c4.6-0.7,9.2-1.9,13.8-2c-0.4,9.8,0.1,19.5-0.8,29.2c-0.2,10.3,0,20.7-0.8,31c0,8.5-0.3,17-0.3,25.5c-0.9,8.2-0.4,16.4-0.8,24.6
	c-0.5,10.9-0.6,21.7-0.8,32.6c-1.2,12.7-0.1,25.5-1.3,38.1c0,8.2-0.3,16.4-0.3,24.7c-0.9,10.1-0.4,20.2-0.8,30.3
	c-0.9,9.1-0.4,18.2-0.8,27.4c-18.8,0.3-37.7-0.9-56.3-3.3v-0.1c2.2-9.9,3.8-19.9,5.7-29.8c7.6-39.4,14.9-78.8,22.5-118.2
	c0.5-3.4,1.5-6.8,1.4-10.2l0.6,2.2c-0.1-5.3,1.6-10.5,2.4-15.7c4.6-23.9,9-47.8,13.6-71.7C613.5,529.4,614.3,524.4,615.6,519.7
	 M502.7,534.6c6.9-3.4,13.8-6.9,19.8-11.8c1.6-1,2.9,0.4,3.7,1.6c-7.2,5.7-13.8,12.2-21,18C455.5,586,405.8,629.3,356,672.5
	c0.1,0.3,0.4,1,0.6,1.3c-9-9.1-17.7-18.6-25.8-28.5c16.9-11.8,33.6-23.9,50.4-35.7c20.8-14.5,41.3-29.3,62-43.9
	c4.4-2.9,8.5-6.5,13.1-9.1c3.9-2.8,7.5-6,11.8-8.2C479.9,544.6,491.5,540,502.7,534.6 M589,523.9c3.6-0.7,7.2-1.2,10.8-1.4
	c-28.7,81.3-57.6,162.6-86.1,244c-15.6-4.3-30.7-10.2-45.6-16.5c-1.5,0.1-2.1-1.5-3.6-0.9l0.4-0.7c3.5-6.5,7.2-12.9,10.3-19.5
	c23.1-43.7,46.2-87.5,69.3-131.2c12.6-24.2,25.6-48.2,38-72.5C584.6,524.1,586.9,524.4,589,523.9 M280.6,537.4
	c13-4,26.1-7.8,39.1-11.8c4.6,6.9,10.3,12.9,16.9,17.8c0,0.2,0,0.7,0,0.9c-8.3,3-16.4,6.4-24.8,9.3c-10.2,4.2-20.7,7.7-30.9,12
	c-3.9-8.3-7.3-16.9-10.6-25.4C273.9,539.7,277.1,538.3,280.6,537.4 M547.7,529.8c5.3,0.3,10.3-1.8,15.6-1.7c-1.5,2.3-3,4.7-5.2,6.4
	l1.2,0.2c-0.6,0.4-1.2,0.8-1.7,1.4c-9.9,13.7-19.6,27.4-29.4,41.1c0,0.3-0.1,1-0.2,1.3c-0.1-0.2-0.3-0.7-0.5-0.9
	c-1.8,3.5-4.4,6.3-6.5,9.6c-9.6,13.3-19,26.7-28.6,40c-3.5,4.7-6.6,9.7-10.3,14.3c-0.8,1-1.3,2.2-1.5,3.5l-0.9-0.5
	c-1,2.2-2.7,3.9-3.4,6.2l-0.7-0.5c-1.8,4.4-5.6,7.5-7.5,11.8c-0.1-0.3-0.2-0.8-0.3-1.1c-0.1,0.3-0.2,1-0.3,1.3
	c-3.2,4.5-6.5,8.9-9.6,13.5c-1.7,2.7-4.2,4.8-5.5,7.7c-10.1,14.1-20.2,28.3-30.2,42.4c-12.9-8.1-25.4-16.9-37.3-26.4l1.5,0.1
	c4.9-5.3,9.8-10.6,14.7-15.9c2.6-3.3,6-5.9,8.1-9.5c0.5-0.2,1-0.4,1.6-0.6c4.6-6.5,10.6-11.8,15.8-17.8
	c38.4-41.9,76.9-83.8,115.2-125.6C543.8,529.4,545.8,530,547.7,529.8 M364.9,558c1.6-0.8,3.5-0.6,5.2-0.5
	c10.3,1.9,20.8,2.7,31.3,2.4c3.2,0.2,6.4-0.7,9.6,0c-2.6,1.8-5.7,2.9-8.1,5c-1.8,0.5-3.4,1.4-4.9,2.5
	c-21.9,12.7-43.9,25.3-65.7,38.1c-7,3.7-13.6,8.1-20.6,11.7l-1,0.3l-0.8-0.4c-5.5-8.5-10.9-17-15.7-25.8
	C317.7,580.2,341.3,569.2,364.9,558L364.9,558z"/>
<rect x="217" y="12" class="st3" width="800" height="800"/>
</svg>
